<svg width="260" height="39" viewBox="0 0 260 39" fill="none" 
    xmlns="http://www.w3.org/2000/svg">
    <path d="M3.00046 31C1.34554 31 0 29.6547 0 28V10C0 8.34533 1.34554 7 3.00046 7H29.0044C30.6594 7 32.0049 8.34533 32.0049 10V28C32.0049 29.6547 30.6594 31 29.0044 31H3.00046ZM3.00046 9C2.44837 9 2.00031 9.448 2.00031 10V28C2.00031 28.552 2.44837 29 3.00046 29H29.0044C29.5565 29 30.0046 28.552 30.0046 28V10C30.0046 9.448 29.5565 9 29.0044 9H3.00046Z" fill="#F8F9FA"/>
    <path d="M13.0027 24C12.9534 24 12.904 23.996 12.8547 23.9893C12.548 23.9453 12.2719 23.7533 12.1226 23.4773L9.15678 18.016L5.85761 23.5147C5.67758 23.8133 5.34953 24 5.00014 24C4.81878 24 4.64009 23.9507 4.4854 23.8573C4.25736 23.72 4.09467 23.5013 4.03066 23.2427C3.96665 22.984 4.00532 22.7147 4.14268 22.4853L8.34332 15.4853C8.52335 15.1853 8.84473 14.9987 9.18345 14.9987C9.19412 14.9987 9.23279 15 9.24346 15C9.57951 15.0067 9.90889 15.2067 10.0796 15.5213L13.2414 21.344L16.2952 18.2907C16.4846 18.1013 16.7353 17.9973 17.002 17.9973C17.2687 17.9973 17.5207 18.1013 17.7088 18.2907L20.8466 21.428L26.1714 13.4427C26.3581 13.1667 26.6688 13 27.0035 13C27.2009 13 27.3929 13.0587 27.5583 13.168C27.781 13.316 27.933 13.5427 27.985 13.804C28.037 14.0653 27.985 14.332 27.8356 14.5547L21.8347 23.5547C21.668 23.804 21.4013 23.9653 21.1013 23.9947C21.0693 23.9987 21.0346 24 21.0013 24C20.7385 24 20.4812 23.8933 20.2945 23.7067L17.002 20.4147L13.7081 23.708C13.5188 23.896 13.2681 24 13.0027 24Z" fill="#F8F9FA"/>
</svg>
